<mxfile host="app.diagrams.net" modified="2024-07-06T04:53:53.905Z" agent="Mozilla/5.0 (Windows NT 10.0; Win64; x64) AppleWebKit/537.36 (KHTML, like Gecko) Chrome/126.0.0.0 Safari/537.36" etag="Kgya7bjTf0CEDfsdWf9F" version="24.6.4" type="github">
  <diagram name="Page-1" id="7e0a89b8-554c-2b80-1dc8-d5c74ca68de4">
    <mxGraphModel dx="1760" dy="936" grid="1" gridSize="10" guides="1" tooltips="1" connect="1" arrows="1" fold="1" page="1" pageScale="1" pageWidth="1100" pageHeight="850" background="none" math="0" shadow="0">
      <root>
        <mxCell id="0" />
        <mxCell id="1" parent="0" />
        <mxCell id="AjUhY7sChXVOpZcCL1JK-31" style="edgeStyle=orthogonalEdgeStyle;rounded=0;orthogonalLoop=1;jettySize=auto;html=1;exitX=0;exitY=1;exitDx=0;exitDy=0;endArrow=none;endFill=0;entryX=1;entryY=0;entryDx=0;entryDy=0;" edge="1" parent="1" source="AjUhY7sChXVOpZcCL1JK-42" target="AjUhY7sChXVOpZcCL1JK-23">
          <mxGeometry relative="1" as="geometry">
            <mxPoint x="590" y="290" as="targetPoint" />
            <Array as="points">
              <mxPoint x="610" y="260" />
            </Array>
          </mxGeometry>
        </mxCell>
        <mxCell id="AjUhY7sChXVOpZcCL1JK-32" style="edgeStyle=orthogonalEdgeStyle;rounded=0;orthogonalLoop=1;jettySize=auto;html=1;exitX=0.5;exitY=1;exitDx=0;exitDy=0;endArrow=none;endFill=0;entryX=1;entryY=0.25;entryDx=0;entryDy=0;" edge="1" parent="1" source="AjUhY7sChXVOpZcCL1JK-44" target="AjUhY7sChXVOpZcCL1JK-23">
          <mxGeometry relative="1" as="geometry">
            <mxPoint x="610" y="250" as="targetPoint" />
            <Array as="points">
              <mxPoint x="590" y="280" />
            </Array>
          </mxGeometry>
        </mxCell>
        <mxCell id="AjUhY7sChXVOpZcCL1JK-33" style="edgeStyle=orthogonalEdgeStyle;rounded=0;orthogonalLoop=1;jettySize=auto;html=1;exitX=0.5;exitY=1;exitDx=0;exitDy=0;endArrow=none;endFill=0;entryX=1;entryY=0.5;entryDx=0;entryDy=0;" edge="1" parent="1" source="AjUhY7sChXVOpZcCL1JK-45" target="AjUhY7sChXVOpZcCL1JK-23">
          <mxGeometry relative="1" as="geometry">
            <mxPoint x="640" y="280" as="targetPoint" />
            <Array as="points">
              <mxPoint x="570" y="300" />
            </Array>
          </mxGeometry>
        </mxCell>
        <mxCell id="AjUhY7sChXVOpZcCL1JK-2" value="ADAFRUIT ESP32-S2 Feather" style="shadow=0;dashed=0;align=center;html=1;strokeWidth=1;shape=mxgraph.electrical.logic_gates.dual_inline_ic;labelNames=a,b,c,d,e,f,g,h,i,j,k,l,m,n,o,p,q,r,s,t;whiteSpace=wrap;movable=1;resizable=1;rotatable=1;deletable=1;editable=1;locked=0;connectable=1;" vertex="1" parent="1">
          <mxGeometry x="1080" y="170" width="140" height="326" as="geometry" />
        </mxCell>
        <mxCell id="AjUhY7sChXVOpZcCL1JK-10" value="ky-040&lt;br&gt;Rotary Encoder&lt;br&gt;Right" style="whiteSpace=wrap;html=1;aspect=fixed;direction=south;" vertex="1" parent="1">
          <mxGeometry x="1550" y="100" width="80" height="80" as="geometry" />
        </mxCell>
        <mxCell id="AjUhY7sChXVOpZcCL1JK-23" value="ky-040&lt;br&gt;Rotary Encoder&lt;br&gt;Left" style="whiteSpace=wrap;html=1;aspect=fixed;direction=south;" vertex="1" parent="1">
          <mxGeometry x="530" y="90" width="80" height="80" as="geometry" />
        </mxCell>
        <mxCell id="AjUhY7sChXVOpZcCL1JK-27" value="" style="endArrow=none;html=1;rounded=0;exitX=1;exitY=1;exitDx=0;exitDy=0;entryX=0;entryY=0;entryDx=0;entryDy=70;entryPerimeter=0;edgeStyle=orthogonalEdgeStyle;endFill=0;" edge="1" parent="1" source="AjUhY7sChXVOpZcCL1JK-23" target="AjUhY7sChXVOpZcCL1JK-2">
          <mxGeometry width="50" height="50" relative="1" as="geometry">
            <mxPoint x="700" y="340" as="sourcePoint" />
            <mxPoint x="750" y="290" as="targetPoint" />
            <Array as="points">
              <mxPoint x="530" y="240" />
            </Array>
          </mxGeometry>
        </mxCell>
        <mxCell id="AjUhY7sChXVOpZcCL1JK-29" value="" style="endArrow=none;html=1;rounded=0;exitX=1;exitY=0.75;exitDx=0;exitDy=0;entryX=0;entryY=0;entryDx=0;entryDy=30;entryPerimeter=0;edgeStyle=orthogonalEdgeStyle;endFill=0;" edge="1" parent="1" source="AjUhY7sChXVOpZcCL1JK-23" target="AjUhY7sChXVOpZcCL1JK-2">
          <mxGeometry width="50" height="50" relative="1" as="geometry">
            <mxPoint x="380" y="180" as="sourcePoint" />
            <mxPoint x="870" y="250" as="targetPoint" />
            <Array as="points">
              <mxPoint x="550" y="200" />
            </Array>
          </mxGeometry>
        </mxCell>
        <mxCell id="AjUhY7sChXVOpZcCL1JK-40" value="Vout" style="text;html=1;align=center;verticalAlign=middle;whiteSpace=wrap;rounded=0;" vertex="1" parent="1">
          <mxGeometry x="1078" y="190" width="20" height="10" as="geometry" />
        </mxCell>
        <mxCell id="AjUhY7sChXVOpZcCL1JK-41" value="GND" style="text;html=1;align=center;verticalAlign=middle;whiteSpace=wrap;rounded=0;" vertex="1" parent="1">
          <mxGeometry x="1068" y="230" width="40" height="10" as="geometry" />
        </mxCell>
        <mxCell id="AjUhY7sChXVOpZcCL1JK-42" value="26" style="text;html=1;align=center;verticalAlign=middle;whiteSpace=wrap;rounded=0;" vertex="1" parent="1">
          <mxGeometry x="1078" y="250" width="30" height="10" as="geometry" />
        </mxCell>
        <mxCell id="AjUhY7sChXVOpZcCL1JK-44" value="25" style="text;html=1;align=center;verticalAlign=middle;whiteSpace=wrap;rounded=0;" vertex="1" parent="1">
          <mxGeometry x="1067" y="270" width="30" height="10" as="geometry" />
        </mxCell>
        <mxCell id="AjUhY7sChXVOpZcCL1JK-45" value="34" style="text;html=1;align=center;verticalAlign=middle;whiteSpace=wrap;rounded=0;" vertex="1" parent="1">
          <mxGeometry x="1070" y="290" width="20" height="10" as="geometry" />
        </mxCell>
        <mxCell id="AjUhY7sChXVOpZcCL1JK-46" value="39" style="text;html=1;align=center;verticalAlign=middle;whiteSpace=wrap;rounded=0;" vertex="1" parent="1">
          <mxGeometry x="1063" y="305" width="29" height="13" as="geometry" />
        </mxCell>
        <mxCell id="AjUhY7sChXVOpZcCL1JK-47" value="36" style="text;html=1;align=center;verticalAlign=middle;whiteSpace=wrap;rounded=0;" vertex="1" parent="1">
          <mxGeometry x="1069" y="325" width="20" height="5" as="geometry" />
        </mxCell>
        <mxCell id="AjUhY7sChXVOpZcCL1JK-48" value="4" style="text;html=1;align=center;verticalAlign=middle;whiteSpace=wrap;rounded=0;" vertex="1" parent="1">
          <mxGeometry x="1068" y="343" width="19" height="8" as="geometry" />
        </mxCell>
        <mxCell id="AjUhY7sChXVOpZcCL1JK-50" value="13" style="text;html=1;align=center;verticalAlign=middle;whiteSpace=wrap;rounded=0;" vertex="1" parent="1">
          <mxGeometry x="1210" y="300" width="29" height="20" as="geometry" />
        </mxCell>
        <mxCell id="AjUhY7sChXVOpZcCL1JK-51" value="12" style="text;html=1;align=center;verticalAlign=middle;whiteSpace=wrap;rounded=0;" vertex="1" parent="1">
          <mxGeometry x="1210" y="320" width="29" height="20" as="geometry" />
        </mxCell>
        <mxCell id="AjUhY7sChXVOpZcCL1JK-52" value="27" style="text;html=1;align=center;verticalAlign=middle;whiteSpace=wrap;rounded=0;" vertex="1" parent="1">
          <mxGeometry x="1210" y="343" width="29" height="24" as="geometry" />
        </mxCell>
        <mxCell id="AjUhY7sChXVOpZcCL1JK-53" value="GND" style="text;html=1;align=center;verticalAlign=middle;whiteSpace=wrap;rounded=0;" vertex="1" parent="1">
          <mxGeometry x="1528" y="179" width="29" height="20" as="geometry" />
        </mxCell>
        <mxCell id="AjUhY7sChXVOpZcCL1JK-54" value="+" style="text;html=1;align=center;verticalAlign=middle;whiteSpace=wrap;rounded=0;" vertex="1" parent="1">
          <mxGeometry x="1550" y="178" width="29" height="20" as="geometry" />
        </mxCell>
        <mxCell id="AjUhY7sChXVOpZcCL1JK-55" value="SW" style="text;html=1;align=center;verticalAlign=middle;whiteSpace=wrap;rounded=0;" vertex="1" parent="1">
          <mxGeometry x="1571" y="180" width="29" height="20" as="geometry" />
        </mxCell>
        <mxCell id="AjUhY7sChXVOpZcCL1JK-57" value="DT" style="text;html=1;align=center;verticalAlign=middle;whiteSpace=wrap;rounded=0;" vertex="1" parent="1">
          <mxGeometry x="1594" y="180" width="29" height="20" as="geometry" />
        </mxCell>
        <mxCell id="AjUhY7sChXVOpZcCL1JK-59" value="" style="endArrow=none;html=1;rounded=0;entryX=1;entryY=1;entryDx=0;entryDy=0;edgeStyle=orthogonalEdgeStyle;endFill=0;startArrow=oval;startFill=0;" edge="1" parent="1" target="AjUhY7sChXVOpZcCL1JK-10">
          <mxGeometry width="50" height="50" relative="1" as="geometry">
            <mxPoint x="1000" y="200" as="sourcePoint" />
            <mxPoint x="1530" y="90" as="targetPoint" />
            <Array as="points">
              <mxPoint x="1000" y="90" />
              <mxPoint x="1360" y="90" />
              <mxPoint x="1360" y="210" />
              <mxPoint x="1550" y="210" />
            </Array>
          </mxGeometry>
        </mxCell>
        <mxCell id="AjUhY7sChXVOpZcCL1JK-60" value="" style="endArrow=none;html=1;rounded=0;entryX=1;entryY=0.75;entryDx=0;entryDy=0;edgeStyle=orthogonalEdgeStyle;endFill=0;startArrow=oval;startFill=0;" edge="1" parent="1" target="AjUhY7sChXVOpZcCL1JK-10">
          <mxGeometry width="50" height="50" relative="1" as="geometry">
            <mxPoint x="1020" y="240" as="sourcePoint" />
            <mxPoint x="1570" y="220" as="targetPoint" />
            <Array as="points">
              <mxPoint x="1020" y="130" />
              <mxPoint x="1320" y="130" />
              <mxPoint x="1320" y="250" />
              <mxPoint x="1570" y="250" />
            </Array>
          </mxGeometry>
        </mxCell>
        <mxCell id="AjUhY7sChXVOpZcCL1JK-61" value="" style="endArrow=none;html=1;rounded=0;entryX=1;entryY=0.5;entryDx=0;entryDy=0;edgeStyle=orthogonalEdgeStyle;endFill=0;exitX=1;exitY=0;exitDx=0;exitDy=150;exitPerimeter=0;" edge="1" parent="1" source="AjUhY7sChXVOpZcCL1JK-2" target="AjUhY7sChXVOpZcCL1JK-10">
          <mxGeometry width="50" height="50" relative="1" as="geometry">
            <mxPoint x="1290" y="370" as="sourcePoint" />
            <mxPoint x="1809.5" y="335" as="targetPoint" />
            <Array as="points">
              <mxPoint x="1590" y="320" />
            </Array>
          </mxGeometry>
        </mxCell>
        <mxCell id="AjUhY7sChXVOpZcCL1JK-63" value="" style="endArrow=none;html=1;rounded=0;entryX=1;entryY=0.25;entryDx=0;entryDy=0;edgeStyle=orthogonalEdgeStyle;endFill=0;exitX=1;exitY=0;exitDx=0;exitDy=170;exitPerimeter=0;" edge="1" parent="1" source="AjUhY7sChXVOpZcCL1JK-2" target="AjUhY7sChXVOpZcCL1JK-10">
          <mxGeometry width="50" height="50" relative="1" as="geometry">
            <mxPoint x="1230" y="330" as="sourcePoint" />
            <mxPoint x="1600" y="190" as="targetPoint" />
            <Array as="points">
              <mxPoint x="1610" y="340" />
            </Array>
          </mxGeometry>
        </mxCell>
        <mxCell id="AjUhY7sChXVOpZcCL1JK-65" value="Mechanical Switch&lt;br&gt;1" style="whiteSpace=wrap;html=1;aspect=fixed;direction=south;" vertex="1" parent="1">
          <mxGeometry x="590" y="590" width="80" height="80" as="geometry" />
        </mxCell>
        <mxCell id="AjUhY7sChXVOpZcCL1JK-66" value="Mechanical Switch&lt;br&gt;2" style="whiteSpace=wrap;html=1;aspect=fixed;direction=south;" vertex="1" parent="1">
          <mxGeometry x="850" y="600" width="80" height="80" as="geometry" />
        </mxCell>
        <mxCell id="AjUhY7sChXVOpZcCL1JK-67" value="Mechanical Switch&lt;br&gt;3" style="whiteSpace=wrap;html=1;aspect=fixed;direction=south;" vertex="1" parent="1">
          <mxGeometry x="1300" y="590" width="80" height="80" as="geometry" />
        </mxCell>
        <mxCell id="AjUhY7sChXVOpZcCL1JK-68" value="Mechanical Switch&lt;br&gt;4" style="whiteSpace=wrap;html=1;aspect=fixed;direction=south;" vertex="1" parent="1">
          <mxGeometry x="1521" y="590" width="80" height="80" as="geometry" />
        </mxCell>
        <mxCell id="AjUhY7sChXVOpZcCL1JK-69" value="Mechanical Switch&lt;div&gt;Mod&lt;br&gt;A&lt;/div&gt;" style="whiteSpace=wrap;html=1;aspect=fixed;direction=south;" vertex="1" parent="1">
          <mxGeometry x="700" y="730" width="80" height="80" as="geometry" />
        </mxCell>
        <mxCell id="AjUhY7sChXVOpZcCL1JK-70" value="Mechanical Switch&lt;br&gt;Mod&lt;br&gt;B" style="whiteSpace=wrap;html=1;aspect=fixed;direction=south;" vertex="1" parent="1">
          <mxGeometry x="1410" y="740" width="80" height="80" as="geometry" />
        </mxCell>
        <mxCell id="AjUhY7sChXVOpZcCL1JK-71" value="" style="endArrow=none;html=1;rounded=0;entryX=0;entryY=0.75;entryDx=0;entryDy=0;edgeStyle=orthogonalEdgeStyle;endFill=0;startArrow=oval;startFill=0;" edge="1" parent="1" target="AjUhY7sChXVOpZcCL1JK-65">
          <mxGeometry width="50" height="50" relative="1" as="geometry">
            <mxPoint x="990" y="240" as="sourcePoint" />
            <mxPoint x="1130" y="465.94" as="targetPoint" />
            <Array as="points">
              <mxPoint x="990" y="496" />
              <mxPoint x="610" y="496" />
            </Array>
          </mxGeometry>
        </mxCell>
        <mxCell id="AjUhY7sChXVOpZcCL1JK-72" value="" style="endArrow=none;html=1;rounded=0;entryX=0;entryY=0.25;entryDx=0;entryDy=0;edgeStyle=orthogonalEdgeStyle;endFill=0;startArrow=none;startFill=0;exitX=0;exitY=0;exitDx=0;exitDy=150;exitPerimeter=0;" edge="1" parent="1" source="AjUhY7sChXVOpZcCL1JK-2" target="AjUhY7sChXVOpZcCL1JK-65">
          <mxGeometry width="50" height="50" relative="1" as="geometry">
            <mxPoint x="1050" y="380" as="sourcePoint" />
            <mxPoint x="620" y="600" as="targetPoint" />
            <Array as="points">
              <mxPoint x="1000" y="320" />
              <mxPoint x="1000" y="506" />
              <mxPoint x="650" y="506" />
            </Array>
          </mxGeometry>
        </mxCell>
        <mxCell id="AjUhY7sChXVOpZcCL1JK-73" value="" style="endArrow=none;html=1;rounded=0;edgeStyle=orthogonalEdgeStyle;endFill=0;startArrow=oval;startFill=0;entryX=0;entryY=0.75;entryDx=0;entryDy=0;" edge="1" parent="1" target="AjUhY7sChXVOpZcCL1JK-66">
          <mxGeometry width="50" height="50" relative="1" as="geometry">
            <mxPoint x="960" y="240" as="sourcePoint" />
            <mxPoint x="940" y="570" as="targetPoint" />
            <Array as="points">
              <mxPoint x="960" y="430" />
              <mxPoint x="870" y="430" />
            </Array>
          </mxGeometry>
        </mxCell>
        <mxCell id="AjUhY7sChXVOpZcCL1JK-75" value="" style="endArrow=none;html=1;rounded=0;entryX=0;entryY=0.25;entryDx=0;entryDy=0;edgeStyle=orthogonalEdgeStyle;endFill=0;startArrow=none;startFill=0;exitX=0;exitY=0;exitDx=0;exitDy=170;exitPerimeter=0;" edge="1" parent="1" source="AjUhY7sChXVOpZcCL1JK-2" target="AjUhY7sChXVOpZcCL1JK-66">
          <mxGeometry width="50" height="50" relative="1" as="geometry">
            <mxPoint x="1060" y="360" as="sourcePoint" />
            <mxPoint x="660" y="600" as="targetPoint" />
            <Array as="points">
              <mxPoint x="1010" y="340" />
              <mxPoint x="1010" y="516" />
              <mxPoint x="910" y="516" />
            </Array>
          </mxGeometry>
        </mxCell>
        <mxCell id="AjUhY7sChXVOpZcCL1JK-76" value="" style="endArrow=none;html=1;rounded=0;entryX=0;entryY=0.75;entryDx=0;entryDy=0;edgeStyle=orthogonalEdgeStyle;endFill=0;startArrow=oval;startFill=0;" edge="1" parent="1" target="AjUhY7sChXVOpZcCL1JK-69">
          <mxGeometry width="50" height="50" relative="1" as="geometry">
            <mxPoint x="940" y="240" as="sourcePoint" />
            <mxPoint x="620" y="600" as="targetPoint" />
            <Array as="points">
              <mxPoint x="940" y="400" />
              <mxPoint x="720" y="400" />
            </Array>
          </mxGeometry>
        </mxCell>
        <mxCell id="AjUhY7sChXVOpZcCL1JK-77" value="" style="endArrow=none;html=1;rounded=0;entryX=0;entryY=0.25;entryDx=0;entryDy=0;edgeStyle=orthogonalEdgeStyle;endFill=0;startArrow=none;startFill=0;exitX=0;exitY=0;exitDx=0;exitDy=190;exitPerimeter=0;" edge="1" parent="1" source="AjUhY7sChXVOpZcCL1JK-2" target="AjUhY7sChXVOpZcCL1JK-69">
          <mxGeometry width="50" height="50" relative="1" as="geometry">
            <mxPoint x="1060" y="360" as="sourcePoint" />
            <mxPoint x="660" y="600" as="targetPoint" />
            <Array as="points">
              <mxPoint x="1020" y="360" />
              <mxPoint x="1020" y="530" />
              <mxPoint x="760" y="530" />
            </Array>
          </mxGeometry>
        </mxCell>
        <mxCell id="AjUhY7sChXVOpZcCL1JK-78" value="" style="endArrow=none;html=1;rounded=0;entryX=0;entryY=0.75;entryDx=0;entryDy=0;edgeStyle=orthogonalEdgeStyle;endFill=0;startArrow=oval;startFill=0;" edge="1" parent="1" target="AjUhY7sChXVOpZcCL1JK-67">
          <mxGeometry width="50" height="50" relative="1" as="geometry">
            <mxPoint x="920" y="240" as="sourcePoint" />
            <mxPoint x="620" y="600" as="targetPoint" />
            <Array as="points">
              <mxPoint x="920" y="50" />
              <mxPoint x="1390" y="50" />
              <mxPoint x="1390" y="520" />
              <mxPoint x="1320" y="520" />
            </Array>
          </mxGeometry>
        </mxCell>
        <mxCell id="AjUhY7sChXVOpZcCL1JK-79" value="" style="endArrow=none;html=1;rounded=0;entryX=0;entryY=0.75;entryDx=0;entryDy=0;edgeStyle=orthogonalEdgeStyle;endFill=0;startArrow=oval;startFill=0;" edge="1" parent="1" target="AjUhY7sChXVOpZcCL1JK-68">
          <mxGeometry width="50" height="50" relative="1" as="geometry">
            <mxPoint x="910" y="240" as="sourcePoint" />
            <mxPoint x="1330" y="600" as="targetPoint" />
            <Array as="points">
              <mxPoint x="910" y="30" />
              <mxPoint x="1410" y="30" />
              <mxPoint x="1410" y="520" />
              <mxPoint x="1541" y="520" />
            </Array>
          </mxGeometry>
        </mxCell>
        <mxCell id="AjUhY7sChXVOpZcCL1JK-80" value="" style="endArrow=none;html=1;rounded=0;entryX=0;entryY=0.75;entryDx=0;entryDy=0;edgeStyle=orthogonalEdgeStyle;endFill=0;startArrow=oval;startFill=0;" edge="1" parent="1" target="AjUhY7sChXVOpZcCL1JK-70">
          <mxGeometry width="50" height="50" relative="1" as="geometry">
            <mxPoint x="900" y="240" as="sourcePoint" />
            <mxPoint x="1551" y="600" as="targetPoint" />
            <Array as="points">
              <mxPoint x="900" y="20" />
              <mxPoint x="1440" y="20" />
              <mxPoint x="1440" y="560" />
              <mxPoint x="1430" y="560" />
            </Array>
          </mxGeometry>
        </mxCell>
        <mxCell id="AjUhY7sChXVOpZcCL1JK-81" value="" style="endArrow=none;html=1;rounded=0;entryX=0;entryY=0.25;entryDx=0;entryDy=0;edgeStyle=orthogonalEdgeStyle;endFill=0;exitX=1;exitY=0;exitDx=0;exitDy=210;exitPerimeter=0;" edge="1" parent="1" source="AjUhY7sChXVOpZcCL1JK-2" target="AjUhY7sChXVOpZcCL1JK-67">
          <mxGeometry width="50" height="50" relative="1" as="geometry">
            <mxPoint x="1230" y="370" as="sourcePoint" />
            <mxPoint x="1640" y="190" as="targetPoint" />
            <Array as="points">
              <mxPoint x="1360" y="380" />
            </Array>
          </mxGeometry>
        </mxCell>
        <mxCell id="AjUhY7sChXVOpZcCL1JK-82" value="" style="endArrow=none;html=1;rounded=0;entryX=0;entryY=0.25;entryDx=0;entryDy=0;edgeStyle=orthogonalEdgeStyle;endFill=0;exitX=1;exitY=0;exitDx=0;exitDy=230;exitPerimeter=0;" edge="1" parent="1" source="AjUhY7sChXVOpZcCL1JK-2" target="AjUhY7sChXVOpZcCL1JK-68">
          <mxGeometry width="50" height="50" relative="1" as="geometry">
            <mxPoint x="1230" y="390" as="sourcePoint" />
            <mxPoint x="1370" y="600" as="targetPoint" />
            <Array as="points">
              <mxPoint x="1581" y="400" />
            </Array>
          </mxGeometry>
        </mxCell>
        <mxCell id="AjUhY7sChXVOpZcCL1JK-83" value="" style="endArrow=none;html=1;rounded=0;entryX=0;entryY=0.25;entryDx=0;entryDy=0;edgeStyle=orthogonalEdgeStyle;endFill=0;exitX=1;exitY=0;exitDx=0;exitDy=250;exitPerimeter=0;" edge="1" parent="1" source="AjUhY7sChXVOpZcCL1JK-2" target="AjUhY7sChXVOpZcCL1JK-70">
          <mxGeometry width="50" height="50" relative="1" as="geometry">
            <mxPoint x="1230" y="410" as="sourcePoint" />
            <mxPoint x="1591" y="600" as="targetPoint" />
            <Array as="points">
              <mxPoint x="1470" y="420" />
            </Array>
          </mxGeometry>
        </mxCell>
        <mxCell id="AjUhY7sChXVOpZcCL1JK-85" value="33" style="text;html=1;align=center;verticalAlign=middle;whiteSpace=wrap;rounded=0;" vertex="1" parent="1">
          <mxGeometry x="1214.5" y="367" width="20" height="5" as="geometry" />
        </mxCell>
        <mxCell id="AjUhY7sChXVOpZcCL1JK-86" value="15" style="text;html=1;align=center;verticalAlign=middle;whiteSpace=wrap;rounded=0;" vertex="1" parent="1">
          <mxGeometry x="1214.5" y="390" width="20" height="5" as="geometry" />
        </mxCell>
        <mxCell id="AjUhY7sChXVOpZcCL1JK-87" value="32" style="text;html=1;align=center;verticalAlign=middle;whiteSpace=wrap;rounded=0;" vertex="1" parent="1">
          <mxGeometry x="1214.5" y="410" width="20" height="5" as="geometry" />
        </mxCell>
        <mxCell id="AjUhY7sChXVOpZcCL1JK-88" value="" style="endArrow=none;html=1;rounded=0;entryX=1;entryY=0;entryDx=0;entryDy=0;edgeStyle=orthogonalEdgeStyle;endFill=0;exitX=1;exitY=0;exitDx=0;exitDy=190;exitPerimeter=0;" edge="1" parent="1" source="AjUhY7sChXVOpZcCL1JK-2" target="AjUhY7sChXVOpZcCL1JK-10">
          <mxGeometry width="50" height="50" relative="1" as="geometry">
            <mxPoint x="1220" y="360" as="sourcePoint" />
            <mxPoint x="1630" y="180" as="targetPoint" />
            <Array as="points">
              <mxPoint x="1630" y="360" />
            </Array>
          </mxGeometry>
        </mxCell>
        <mxCell id="AjUhY7sChXVOpZcCL1JK-58" value="CLK" style="text;html=1;align=center;verticalAlign=middle;whiteSpace=wrap;rounded=0;" vertex="1" parent="1">
          <mxGeometry x="1615" y="180" width="29" height="20" as="geometry" />
        </mxCell>
        <mxCell id="AjUhY7sChXVOpZcCL1JK-89" value="GND" style="text;html=1;align=center;verticalAlign=middle;whiteSpace=wrap;rounded=0;" vertex="1" parent="1">
          <mxGeometry x="512" y="171" width="29" height="20" as="geometry" />
        </mxCell>
        <mxCell id="AjUhY7sChXVOpZcCL1JK-90" value="+" style="text;html=1;align=center;verticalAlign=middle;whiteSpace=wrap;rounded=0;" vertex="1" parent="1">
          <mxGeometry x="534" y="170" width="29" height="20" as="geometry" />
        </mxCell>
        <mxCell id="AjUhY7sChXVOpZcCL1JK-91" value="SW" style="text;html=1;align=center;verticalAlign=middle;whiteSpace=wrap;rounded=0;" vertex="1" parent="1">
          <mxGeometry x="555" y="172" width="29" height="20" as="geometry" />
        </mxCell>
        <mxCell id="AjUhY7sChXVOpZcCL1JK-92" value="DT" style="text;html=1;align=center;verticalAlign=middle;whiteSpace=wrap;rounded=0;" vertex="1" parent="1">
          <mxGeometry x="578" y="172" width="29" height="20" as="geometry" />
        </mxCell>
        <mxCell id="AjUhY7sChXVOpZcCL1JK-93" value="CLK" style="text;html=1;align=center;verticalAlign=middle;whiteSpace=wrap;rounded=0;" vertex="1" parent="1">
          <mxGeometry x="599" y="172" width="29" height="20" as="geometry" />
        </mxCell>
        <mxCell id="AjUhY7sChXVOpZcCL1JK-94" value="GND" style="text;html=1;align=center;verticalAlign=middle;whiteSpace=wrap;rounded=0;" vertex="1" parent="1">
          <mxGeometry x="588" y="580" width="40" height="10" as="geometry" />
        </mxCell>
        <mxCell id="AjUhY7sChXVOpZcCL1JK-95" value="+" style="text;html=1;align=center;verticalAlign=middle;whiteSpace=wrap;rounded=0;" vertex="1" parent="1">
          <mxGeometry x="624" y="580" width="40" height="10" as="geometry" />
        </mxCell>
        <mxCell id="AjUhY7sChXVOpZcCL1JK-96" value="GND" style="text;html=1;align=center;verticalAlign=middle;whiteSpace=wrap;rounded=0;" vertex="1" parent="1">
          <mxGeometry x="850" y="590" width="40" height="10" as="geometry" />
        </mxCell>
        <mxCell id="AjUhY7sChXVOpZcCL1JK-97" value="+" style="text;html=1;align=center;verticalAlign=middle;whiteSpace=wrap;rounded=0;" vertex="1" parent="1">
          <mxGeometry x="886" y="590" width="40" height="10" as="geometry" />
        </mxCell>
        <mxCell id="AjUhY7sChXVOpZcCL1JK-98" value="GND" style="text;html=1;align=center;verticalAlign=middle;whiteSpace=wrap;rounded=0;" vertex="1" parent="1">
          <mxGeometry x="700" y="720" width="40" height="10" as="geometry" />
        </mxCell>
        <mxCell id="AjUhY7sChXVOpZcCL1JK-99" value="+" style="text;html=1;align=center;verticalAlign=middle;whiteSpace=wrap;rounded=0;" vertex="1" parent="1">
          <mxGeometry x="736" y="720" width="40" height="10" as="geometry" />
        </mxCell>
        <mxCell id="AjUhY7sChXVOpZcCL1JK-100" value="GND" style="text;html=1;align=center;verticalAlign=middle;whiteSpace=wrap;rounded=0;" vertex="1" parent="1">
          <mxGeometry x="1300" y="580" width="40" height="10" as="geometry" />
        </mxCell>
        <mxCell id="AjUhY7sChXVOpZcCL1JK-101" value="+" style="text;html=1;align=center;verticalAlign=middle;whiteSpace=wrap;rounded=0;" vertex="1" parent="1">
          <mxGeometry x="1336" y="580" width="40" height="10" as="geometry" />
        </mxCell>
        <mxCell id="AjUhY7sChXVOpZcCL1JK-102" value="GND" style="text;html=1;align=center;verticalAlign=middle;whiteSpace=wrap;rounded=0;" vertex="1" parent="1">
          <mxGeometry x="1410" y="730" width="40" height="10" as="geometry" />
        </mxCell>
        <mxCell id="AjUhY7sChXVOpZcCL1JK-103" value="+" style="text;html=1;align=center;verticalAlign=middle;whiteSpace=wrap;rounded=0;" vertex="1" parent="1">
          <mxGeometry x="1446" y="730" width="40" height="10" as="geometry" />
        </mxCell>
        <mxCell id="AjUhY7sChXVOpZcCL1JK-104" value="GND" style="text;html=1;align=center;verticalAlign=middle;whiteSpace=wrap;rounded=0;" vertex="1" parent="1">
          <mxGeometry x="1521" y="580" width="40" height="10" as="geometry" />
        </mxCell>
        <mxCell id="AjUhY7sChXVOpZcCL1JK-105" value="+" style="text;html=1;align=center;verticalAlign=middle;whiteSpace=wrap;rounded=0;" vertex="1" parent="1">
          <mxGeometry x="1557" y="580" width="40" height="10" as="geometry" />
        </mxCell>
      </root>
    </mxGraphModel>
  </diagram>
</mxfile>
